<mxfile host="65bd71144e">
    <diagram id="QG6SYp-JatAdR6mF94u1" name="Page-1">
        <mxGraphModel dx="1435" dy="947" grid="1" gridSize="10" guides="1" tooltips="1" connect="1" arrows="1" fold="1" page="1" pageScale="1" pageWidth="850" pageHeight="1100" math="0" shadow="0">
            <root>
                <mxCell id="0"/>
                <mxCell id="1" parent="0"/>
                <mxCell id="3" value="" style="rounded=1;whiteSpace=wrap;html=1;" vertex="1" parent="1">
                    <mxGeometry x="325" y="50" width="200" height="310" as="geometry"/>
                </mxCell>
                <mxCell id="6" value="Scooter" style="text;html=1;strokeColor=none;fillColor=none;align=center;verticalAlign=middle;whiteSpace=wrap;rounded=0;fontSize=20;" vertex="1" parent="1">
                    <mxGeometry x="335" y="60" width="180" height="15" as="geometry"/>
                </mxCell>
                <mxCell id="9" value="" style="rounded=1;whiteSpace=wrap;html=1;" vertex="1" parent="1">
                    <mxGeometry x="570" y="515" width="310" height="375" as="geometry"/>
                </mxCell>
                <mxCell id="10" value="" style="rounded=1;whiteSpace=wrap;html=1;verticalAlign=bottom;" vertex="1" parent="1">
                    <mxGeometry x="80" y="515" width="200" height="245" as="geometry"/>
                </mxCell>
                <mxCell id="7" value="User" style="text;html=1;strokeColor=none;fillColor=none;align=center;verticalAlign=top;whiteSpace=wrap;rounded=0;fontSize=20;" vertex="1" parent="1">
                    <mxGeometry x="90" y="515" width="180" height="15" as="geometry"/>
                </mxCell>
                <mxCell id="11" value="&lt;ul&gt;&lt;li&gt;station&lt;/li&gt;&lt;li&gt;user&lt;/li&gt;&lt;li&gt;serial&lt;/li&gt;&lt;li&gt;nextSerial&lt;/li&gt;&lt;li&gt;charge&lt;/li&gt;&lt;li&gt;isBroken&lt;/li&gt;&lt;/ul&gt;" style="text;html=1;strokeColor=none;fillColor=none;align=left;verticalAlign=middle;whiteSpace=wrap;rounded=0;fontSize=15;" vertex="1" parent="1">
                    <mxGeometry x="325" y="150" width="170" height="30" as="geometry"/>
                </mxCell>
                <mxCell id="24" value="&lt;ul&gt;&lt;li&gt;rent()&lt;/li&gt;&lt;li&gt;dock(station)&lt;/li&gt;&lt;li&gt;recharge()&lt;/li&gt;&lt;li&gt;requestRepair()&lt;/li&gt;&lt;/ul&gt;" style="text;html=1;strokeColor=none;fillColor=none;align=left;verticalAlign=middle;whiteSpace=wrap;rounded=0;fontSize=15;" vertex="1" parent="1">
                    <mxGeometry x="325" y="285" width="60" height="30" as="geometry"/>
                </mxCell>
                <mxCell id="25" value="" style="endArrow=none;html=1;fontSize=15;exitX=-0.001;exitY=0.635;exitDx=0;exitDy=0;exitPerimeter=0;entryX=1.01;entryY=0.633;entryDx=0;entryDy=0;entryPerimeter=0;" edge="1" parent="1" source="3" target="3">
                    <mxGeometry width="50" height="50" relative="1" as="geometry">
                        <mxPoint x="400" y="350" as="sourcePoint"/>
                        <mxPoint x="450" y="300" as="targetPoint"/>
                    </mxGeometry>
                </mxCell>
                <mxCell id="4" value="ScooterApp" style="text;html=1;strokeColor=none;fillColor=none;align=center;verticalAlign=top;whiteSpace=wrap;rounded=0;fontSize=20;" vertex="1" parent="1">
                    <mxGeometry x="570" y="515" width="180" height="40" as="geometry"/>
                </mxCell>
                <mxCell id="29" value="&lt;ul&gt;&lt;li&gt;username&lt;/li&gt;&lt;li&gt;password&lt;/li&gt;&lt;li&gt;age&lt;/li&gt;&lt;li&gt;loggedIn&lt;/li&gt;&lt;/ul&gt;" style="text;html=1;strokeColor=none;fillColor=none;align=left;verticalAlign=middle;whiteSpace=wrap;rounded=0;fontSize=15;" vertex="1" parent="1">
                    <mxGeometry x="80" y="580" width="170" height="30" as="geometry"/>
                </mxCell>
                <mxCell id="32" value="&lt;ul&gt;&lt;li&gt;login(password)&lt;/li&gt;&lt;li&gt;logout()&lt;/li&gt;&lt;/ul&gt;" style="text;html=1;strokeColor=none;fillColor=none;align=left;verticalAlign=middle;whiteSpace=wrap;rounded=0;fontSize=15;" vertex="1" parent="1">
                    <mxGeometry x="80" y="675" width="60" height="30" as="geometry"/>
                </mxCell>
                <mxCell id="33" value="" style="endArrow=none;html=1;fontSize=15;exitX=-0.001;exitY=0.635;exitDx=0;exitDy=0;exitPerimeter=0;entryX=1.01;entryY=0.633;entryDx=0;entryDy=0;entryPerimeter=0;" edge="1" parent="1">
                    <mxGeometry width="50" height="50" relative="1" as="geometry">
                        <mxPoint x="77.79999999999995" y="660.6199999999999" as="sourcePoint"/>
                        <mxPoint x="280" y="660" as="targetPoint"/>
                    </mxGeometry>
                </mxCell>
                <mxCell id="34" value="&lt;ul&gt;&lt;li&gt;stations&lt;/li&gt;&lt;li&gt;registeredUsers&lt;/li&gt;&lt;/ul&gt;" style="text;html=1;strokeColor=none;fillColor=none;align=left;verticalAlign=middle;whiteSpace=wrap;rounded=0;fontSize=15;" vertex="1" parent="1">
                    <mxGeometry x="570" y="570" width="170" height="30" as="geometry"/>
                </mxCell>
                <mxCell id="35" value="&lt;ul&gt;&lt;li&gt;registerUser(username, password, age)&lt;/li&gt;&lt;li&gt;loginUser(username, password)&lt;/li&gt;&lt;/ul&gt;" style="text;html=1;strokeColor=none;fillColor=none;align=left;verticalAlign=middle;whiteSpace=wrap;rounded=0;fontSize=15;" vertex="1" parent="1">
                    <mxGeometry x="570" y="670" width="310" height="30" as="geometry"/>
                </mxCell>
                <mxCell id="37" value="" style="endArrow=none;html=1;fontSize=15;exitX=-0.001;exitY=0.635;exitDx=0;exitDy=0;exitPerimeter=0;entryX=1.002;entryY=0.306;entryDx=0;entryDy=0;entryPerimeter=0;" edge="1" parent="1" target="9">
                    <mxGeometry width="50" height="50" relative="1" as="geometry">
                        <mxPoint x="570" y="630.6199999999999" as="sourcePoint"/>
                        <mxPoint x="772.2" y="630" as="targetPoint"/>
                    </mxGeometry>
                </mxCell>
                <mxCell id="38" value="&lt;ul&gt;&lt;li&gt;logoutUser(username)&lt;/li&gt;&lt;li&gt;createScooter(station)&lt;/li&gt;&lt;li&gt;dockScooter(scooter, station)&lt;/li&gt;&lt;li&gt;rentScooter(scooter, user)&lt;/li&gt;&lt;li&gt;print()&lt;/li&gt;&lt;/ul&gt;" style="text;html=1;strokeColor=none;fillColor=none;align=left;verticalAlign=middle;whiteSpace=wrap;rounded=0;fontSize=15;" vertex="1" parent="1">
                    <mxGeometry x="570" y="750" width="310" height="30" as="geometry"/>
                </mxCell>
                <mxCell id="39" value="" style="endArrow=classic;html=1;fontSize=15;exitX=0.967;exitY=0.985;exitDx=0;exitDy=0;exitPerimeter=0;" edge="1" parent="1" source="3">
                    <mxGeometry width="50" height="50" relative="1" as="geometry">
                        <mxPoint x="400" y="490" as="sourcePoint"/>
                        <mxPoint x="650" y="510" as="targetPoint"/>
                    </mxGeometry>
                </mxCell>
                <mxCell id="40" value="" style="endArrow=classic;html=1;fontSize=15;entryX=-0.012;entryY=0.359;entryDx=0;entryDy=0;entryPerimeter=0;" edge="1" parent="1" target="9">
                    <mxGeometry width="50" height="50" relative="1" as="geometry">
                        <mxPoint x="290" y="620" as="sourcePoint"/>
                        <mxPoint x="560" y="650" as="targetPoint"/>
                    </mxGeometry>
                </mxCell>
            </root>
        </mxGraphModel>
    </diagram>
</mxfile>